<?xml version="1.0" encoding="UTF-8" standalone="no"?><!DOCTYPE svg PUBLIC "-//W3C//DTD SVG 1.1//EN" "http://www.w3.org/Graphics/SVG/1.1/DTD/svg11.dtd"><svg width="100%" height="100%" viewBox="0 0 1280 800" version="1.1" xmlns="http://www.w3.org/2000/svg" xmlns:xlink="http://www.w3.org/1999/xlink" xml:space="preserve" xmlns:serif="http://www.serif.com/" style="fill-rule:evenodd;clip-rule:evenodd;stroke-linejoin:round;stroke-miterlimit:2;"><text x="158.992px" y="684.772px" style="font-family:'ArialMT', 'Arial', sans-serif;font-size:96px;">K I <tspan x="301.305px 358.211px 384.883px " y="684.772px 684.772px 684.772px ">T C</tspan> H E N W <tspan x="875.57px 934.305px 960.977px " y="684.772px 684.772px 684.772px ">A R</tspan> E</text><path d="M595.948,194.233l27.483,64.299l-0.25,0.609l124.095,290.253l-51.671,0l-97.706,-228.53l-93.607,228.53l-55.005,0l123.246,-300.888l22.23,-54.273l1.185,0Zm0.482,246.47c18.859,0 34.17,13.376 34.17,29.852c0,16.475 -15.311,29.852 -34.17,29.852c-18.859,0 -34.17,-13.377 -34.17,-29.852c0,-16.476 15.311,-29.852 34.17,-29.852Z" style="fill:#006400;"/><path d="M790.561,448.197c0,0 1.267,-189.307 1.686,-251.899c0.019,-2.825 1.847,-5.319 4.535,-6.187c2.689,-0.867 5.63,0.086 7.297,2.367c4.744,6.488 10.289,14.072 15.354,21c10.062,13.762 15.999,30.103 17.119,47.114c3.067,46.585 9.409,142.919 11.957,181.638c0.284,4.302 -1.235,8.527 -4.192,11.665c-2.957,3.137 -7.085,4.903 -11.396,4.874c-6.385,-0.041 -12.164,-0.079 -12.164,-0.079l0,83.282c0,4.099 -3.324,7.422 -7.423,7.422c-9.099,0 -23.326,0 -23.326,0l0,-101.197l0.553,0Z"/><path d="M1013.13,194.233l27.483,64.299l-0.25,0.609l124.095,290.253l-51.671,0l-97.706,-228.53l-93.607,228.53l-55.005,0l145.476,-355.161l1.185,0Zm0.482,246.47c18.859,0 34.17,13.376 34.17,29.852c0,16.475 -15.311,29.852 -34.17,29.852c-18.859,0 -34.169,-13.377 -34.169,-29.852c0,-16.476 15.31,-29.852 34.169,-29.852Z" style="fill:#006400;"/><path d="M334.815,155.404l175.408,-226.404l8.875,6.196l-174.583,225.339c13.239,7.624 25.146,17.125 35.311,28.114l225.624,-168.23l6.738,8.141l-225.463,168.111c19.186,24.023 30.575,53.961 30.575,86.404c0,65.495 -46.416,120.781 -109.7,137.81l109.7,68.391l0,61.256l-249.043,-155.261l0,155.261l-52.717,0l0,-267.457c0,-79.045 67.607,-143.219 150.88,-143.219c24.614,0 47.86,5.607 68.395,15.548Zm-31.888,41.159c-11.287,-4.3 -23.608,-6.667 -36.507,-6.667c-54.177,0 -98.163,41.752 -98.163,93.179c0,51.427 43.986,93.178 98.163,93.178c54.178,0 98.163,-41.752 98.163,-93.178c0,-20.783 -7.183,-39.985 -19.32,-55.49l-9.886,7.372c9.805,13.101 15.572,29.112 15.572,46.392c0,44.284 -37.876,80.237 -84.529,80.237c-46.653,0 -84.529,-35.953 -84.529,-80.237c0,-44.284 37.876,-80.237 84.529,-80.237c10.252,0 20.08,1.736 29.175,4.915l7.332,-9.464Zm-13.493,17.416c-7.249,-2.233 -14.984,-3.44 -23.014,-3.44c-41.172,0 -74.598,31.729 -74.598,70.81c0,39.081 33.426,70.81 74.598,70.81c41.172,0 74.598,-31.729 74.598,-70.81c0,-15.083 -4.979,-29.07 -13.461,-40.561l-54.4,40.561l-6.737,-8.142l54.244,-40.445c-5.931,-5.965 -12.941,-10.953 -20.732,-14.682l-36.252,46.792l-8.875,-6.196l34.629,-44.697Zm23.657,-12.883l-7.201,9.295c8.499,4.272 16.14,9.879 22.612,16.527l9.78,-7.293c-7.253,-7.398 -15.757,-13.676 -25.191,-18.529Z" style="fill:#f00;"/></svg>