<?xml version="1.0" encoding="UTF-8" standalone="no"?><!DOCTYPE svg PUBLIC "-//W3C//DTD SVG 1.1//EN" "http://www.w3.org/Graphics/SVG/1.1/DTD/svg11.dtd"><svg width="100%" height="100%" viewBox="0 0 174 174" version="1.1" xmlns="http://www.w3.org/2000/svg" xmlns:xlink="http://www.w3.org/1999/xlink" xml:space="preserve" xmlns:serif="http://www.serif.com/" style="fill-rule:evenodd;clip-rule:evenodd;stroke-linejoin:round;stroke-miterlimit:2;"><path d="M173.191,82.174c-0.907,-35.431 -24.832,-67.147 -58.504,-78.075c-34.231,-11.109 -72.9,0.885 -94.574,29.653c-10.626,14.091 -16.685,31.588 -16.916,49.257c-0.156,11.306 1.975,22.596 6.253,33.062c1.009,2.453 2.122,4.859 3.35,7.206c0.403,0.769 2.788,3.969 2.544,4.694c-0.357,1.034 -0.707,2.075 -1.063,3.109c-4.759,14.019 -9.522,28.035 -14.281,42.044c8.478,-2.681 16.95,-5.369 25.431,-8.059c5.435,-1.725 10.878,-3.447 16.316,-5.175c1.522,-0.475 3.037,-0.96 4.556,-1.435c0.269,-0.09 0.531,-0.178 0.8,-0.256c0.269,-0.09 1.516,0.781 1.788,0.922c1.381,0.713 2.775,1.384 4.187,2.025c35.209,15.809 77.916,5.541 101.95,-24.616c5.878,-7.368 10.513,-15.725 13.622,-24.625c3.4,-9.712 4.541,-19.506 4.541,-29.731Zm-45.988,19.147c-2.841,-1.319 -5.634,-2.75 -8.447,-4.116c-2.287,-1.115 -5.694,-3.468 -8.375,-3.15c-1.706,0.2 -2.628,2.316 -3.581,3.532c-1.306,1.659 -2.684,3.272 -4.069,4.862c-1.047,1.197 -2.125,2.716 -3.934,2.372c-1.319,-0.25 -2.722,-1.066 -3.963,-1.6c-9.006,-3.887 -16.672,-10.294 -22.503,-18.134c-1.631,-2.194 -5.512,-6.3 -3.3,-9.038c2.56,-3.178 7.585,-6.794 5.635,-11.362c-1.204,-2.825 -2.341,-5.669 -3.516,-8.513c-0.709,-1.706 -1.419,-3.422 -2.134,-5.131c-0.704,-1.653 -1.319,-3.875 -2.966,-4.828c-1.05,-0.61 -2.544,-0.278 -3.684,-0.341c-2.435,-0.116 -4.719,-0.297 -6.813,1.181c-2.287,1.61 -4.406,4.288 -5.806,6.669c-7.9,13.413 1.103,27.753 9.272,38.575c4.562,6.044 9.797,11.628 15.709,16.356c7.841,6.272 16.722,10.097 26.222,13.154c3.878,1.25 8.4,2.859 12.544,2.012c1.234,-0.259 2.522,-0.375 3.734,-0.678c3.872,-0.966 7.775,-3.35 10.506,-6.234c2.472,-2.613 3.391,-6.288 3.685,-9.8c0.078,-1.029 0.209,-2.335 -0.213,-3.307c-0.55,-1.281 -2.881,-1.918 -4.003,-2.481Zm-39.012,53.959c-9.569,0 -19.107,-1.928 -27.916,-5.668c-2.191,-0.925 -4.328,-1.957 -6.416,-3.1c-0.943,-0.516 -1.878,-1.05 -2.797,-1.61c-0.321,-0.19 -1.906,-1.459 -2.209,-1.365c-1.087,0.353 -2.178,0.697 -3.266,1.04c-8.037,2.556 -16.081,5.107 -24.121,7.663c2.912,-8.697 5.821,-17.388 8.74,-26.081c0.291,-0.872 -1.247,-2.213 -1.725,-2.929c-1.544,-2.309 -2.944,-4.706 -4.197,-7.178c-2.462,-4.844 -4.35,-9.956 -5.625,-15.228c-2.546,-10.515 -2.534,-21.447 -0.181,-31.987c3.831,-17.128 14.181,-32.422 28.516,-42.519c14.768,-10.403 33.228,-14.831 51.115,-12.359c17.463,2.412 33.682,11.4 45.032,24.884c11.768,13.972 17.643,32.047 16.387,50.262c-1.197,17.394 -8.997,33.938 -21.525,46.047c-12.609,12.185 -29.528,19.413 -47.059,20.082c-0.919,0.034 -1.835,0.046 -2.753,0.046Z" style="fill:#fff;"/></svg>