<?xml version="1.0" encoding="UTF-8" standalone="no"?><!DOCTYPE svg PUBLIC "-//W3C//DTD SVG 1.1//EN" "http://www.w3.org/Graphics/SVG/1.1/DTD/svg11.dtd"><svg width="100%" height="100%" viewBox="0 0 48 48" version="1.1" xmlns="http://www.w3.org/2000/svg" xmlns:xlink="http://www.w3.org/1999/xlink" xml:space="preserve" xmlns:serif="http://www.serif.com/" style="fill-rule:evenodd;clip-rule:evenodd;stroke-linejoin:round;stroke-miterlimit:2;"><path d="M15.052,6.001l0.051,0.002l0.052,0.003l0.05,0.004l0.051,0.006l0.05,0.007l0.049,0.008l0.05,0.009l0.048,0.011l0.049,0.012l0.047,0.012l0.048,0.014l0.047,0.016l0.046,0.016l0.046,0.017l0.045,0.018l0.044,0.02l0.044,0.02l0.044,0.022l0.043,0.022l0.042,0.024l0.041,0.024l0.041,0.026l0.041,0.026l0.039,0.027l0.039,0.029l0.038,0.029l0.037,0.03l0.037,0.031l0.036,0.032l0.035,0.032l0.034,0.034l0.034,0.034l0.032,0.035l0.032,0.036l0.031,0.037l0.03,0.037l0.029,0.038l0.029,0.039l0.027,0.039l0.026,0.041l0.026,0.041l0.024,0.041l0.024,0.042l0.022,0.043l0.022,0.044l0.02,0.044l0.02,0.044l0.018,0.045l0.017,0.046l0.016,0.046l0.016,0.047l0.014,0.048l0.012,0.047l0.012,0.049l0.011,0.048l0.009,0.05l0.008,0.049l0.007,0.05l0.006,0.051l0.004,0.05l0.003,0.052l0.002,0.051l0.001,0.052l0.001,0.233l0.004,0.233l0.005,0.232l0.009,0.232l0.01,0.231l0.013,0.231l0.015,0.23l0.017,0.229l0.02,0.229l0.021,0.228l0.024,0.228l0.027,0.227l0.028,0.226l0.031,0.226l0.032,0.225l0.035,0.224l0.038,0.223l0.039,0.223l0.041,0.222l0.044,0.221l0.046,0.22l0.048,0.22l0.05,0.219l0.052,0.218l0.054,0.217l0.056,0.216l0.058,0.215l0.061,0.214l0.062,0.214l0.064,0.212l0.067,0.212l0.068,0.21l0.02,0.065l0.017,0.065l0.015,0.066l0.013,0.067l0.01,0.066l0.009,0.067l0.006,0.068l0.004,0.067l0.001,0.067l0,0.068l-0.003,0.067l-0.005,0.068l-0.008,0.067l-0.009,0.067l-0.012,0.066l-0.014,0.066l-0.017,0.066l-0.018,0.066l-0.021,0.065l-0.023,0.064l-0.026,0.064l-0.027,0.062l-0.03,0.063l-0.032,0.061l-0.035,0.06l-0.037,0.06l-0.039,0.058l-0.041,0.057l-0.044,0.056l-0.045,0.055l-0.049,0.054l-0.05,0.052l-4.4,4.42l0.137,0.265l0.139,0.263l0.142,0.261l0.144,0.26l0.147,0.258l0.149,0.257l0.151,0.255l0.155,0.254l0.156,0.252l0.159,0.25l0.161,0.249l0.164,0.246l0.166,0.246l0.168,0.243l0.17,0.242l0.173,0.24l0.175,0.238l0.178,0.236l0.18,0.235l0.181,0.233l0.185,0.23l0.186,0.23l0.189,0.227l0.19,0.225l0.193,0.223l0.195,0.222l0.197,0.219l0.2,0.218l0.201,0.216l0.203,0.213l0.206,0.212l0.207,0.21l0.21,0.207l0.212,0.206l0.213,0.203l0.216,0.201l0.218,0.2l0.219,0.197l0.222,0.195l0.223,0.193l0.225,0.19l0.228,0.189l0.229,0.186l0.231,0.184l0.233,0.182l0.234,0.18l0.237,0.177l0.238,0.175l0.24,0.173l0.242,0.17l0.244,0.168l0.245,0.166l0.247,0.164l0.249,0.161l0.25,0.158l0.252,0.156l0.254,0.154l0.256,0.151l0.257,0.149l0.258,0.147l0.261,0.144l0.262,0.141l0.263,0.139l0.265,0.136l4.4,-4.41l0.052,-0.05l0.054,-0.049l0.055,-0.045l0.056,-0.044l0.057,-0.041l0.058,-0.039l0.06,-0.037l0.06,-0.035l0.061,-0.032l0.063,-0.03l0.062,-0.027l0.064,-0.026l0.064,-0.023l0.065,-0.021l0.066,-0.018l0.065,-0.017l0.067,-0.014l0.066,-0.012l0.067,-0.009l0.067,-0.008l0.068,-0.005l0.067,-0.003l0.068,0l0.067,0.001l0.067,0.004l0.068,0.006l0.067,0.009l0.066,0.01l0.067,0.013l0.066,0.015l0.065,0.017l0.065,0.02l0.21,0.068l0.212,0.067l0.212,0.064l0.214,0.062l0.214,0.061l0.215,0.058l0.216,0.056l0.217,0.054l0.218,0.052l0.219,0.05l0.22,0.048l0.22,0.046l0.221,0.044l0.222,0.041l0.223,0.039l0.223,0.037l0.224,0.036l0.225,0.032l0.226,0.031l0.226,0.028l0.227,0.027l0.228,0.024l0.228,0.021l0.229,0.02l0.229,0.017l0.23,0.015l0.231,0.013l0.231,0.01l0.232,0.009l0.232,0.005l0.233,0.004l0.233,0.001l0.052,0.001l0.051,0.002l0.052,0.003l0.05,0.004l0.051,0.006l0.05,0.007l0.049,0.008l0.05,0.009l0.048,0.011l0.049,0.012l0.047,0.012l0.048,0.014l0.047,0.016l0.046,0.016l0.046,0.017l0.045,0.018l0.044,0.02l0.044,0.02l0.044,0.022l0.043,0.022l0.042,0.024l0.041,0.024l0.041,0.026l0.041,0.026l0.039,0.027l0.039,0.029l0.038,0.029l0.037,0.03l0.037,0.031l0.036,0.032l0.035,0.032l0.034,0.034l0.034,0.034l0.032,0.035l0.032,0.036l0.031,0.037l0.03,0.037l0.029,0.038l0.029,0.039l0.027,0.039l0.026,0.041l0.026,0.041l0.024,0.041l0.024,0.042l0.022,0.043l0.022,0.044l0.02,0.044l0.02,0.044l0.018,0.045l0.017,0.046l0.016,0.046l0.016,0.047l0.014,0.048l0.012,0.047l0.012,0.049l0.011,0.048l0.009,0.05l0.008,0.049l0.007,0.05l0.006,0.051l0.004,0.05l0.003,0.052l0.002,0.051l0.001,0.052l0,7l-0.001,0.052l-0.002,0.051l-0.003,0.052l-0.004,0.05l-0.006,0.051l-0.007,0.05l-0.008,0.049l-0.009,0.05l-0.011,0.048l-0.012,0.049l-0.012,0.047l-0.014,0.048l-0.016,0.047l-0.016,0.046l-0.017,0.046l-0.018,0.045l-0.02,0.044l-0.02,0.044l-0.022,0.044l-0.022,0.043l-0.024,0.042l-0.024,0.041l-0.026,0.041l-0.026,0.041l-0.027,0.039l-0.029,0.039l-0.029,0.038l-0.03,0.037l-0.031,0.037l-0.032,0.036l-0.032,0.035l-0.034,0.034l-0.034,0.034l-0.035,0.032l-0.036,0.032l-0.037,0.031l-0.037,0.03l-0.038,0.029l-0.039,0.029l-0.039,0.027l-0.041,0.026l-0.041,0.026l-0.041,0.024l-0.042,0.024l-0.043,0.022l-0.044,0.022l-0.044,0.02l-0.044,0.02l-0.045,0.018l-0.046,0.017l-0.046,0.016l-0.047,0.016l-0.048,0.014l-0.047,0.012l-0.049,0.012l-0.048,0.011l-0.05,0.009l-0.049,0.008l-0.05,0.007l-0.051,0.006l-0.05,0.004l-0.052,0.003l-0.051,0.002l-0.052,0.001l-0.22,-0.001l-0.219,-0.002l-0.22,-0.003l-0.219,-0.005l-0.218,-0.006l-0.218,-0.008l-0.218,-0.009l-0.218,-0.01l-0.217,-0.012l-0.217,-0.013l-0.216,-0.014l-0.216,-0.016l-0.216,-0.017l-0.215,-0.019l-0.215,-0.019l-0.215,-0.022l-0.214,-0.022l-0.214,-0.024l-0.213,-0.025l-0.213,-0.026l-0.212,-0.028l-0.212,-0.029l-0.212,-0.03l-0.211,-0.032l-0.211,-0.033l-0.211,-0.034l-0.21,-0.035l-0.209,-0.037l-0.209,-0.038l-0.209,-0.039l-0.208,-0.041l-0.208,-0.042l-0.207,-0.043l-0.207,-0.044l-0.206,-0.046l-0.206,-0.047l-0.206,-0.048l-0.205,-0.049l-0.204,-0.05l-0.204,-0.052l-0.203,-0.053l-0.203,-0.055l-0.203,-0.055l-0.202,-0.057l-0.201,-0.058l-0.201,-0.059l-0.201,-0.06l-0.199,-0.061l-0.2,-0.063l-0.199,-0.064l-0.198,-0.065l-0.198,-0.066l-0.197,-0.068l-0.197,-0.068l-0.196,-0.07l-0.195,-0.071l-0.195,-0.072l-0.195,-0.073l-0.194,-0.075l-0.193,-0.075l-0.193,-0.077l-0.192,-0.078l-0.191,-0.078l-0.191,-0.081l-0.191,-0.081l-0.189,-0.082l-0.19,-0.084l-0.188,-0.084l-0.188,-0.086l-0.188,-0.087l-0.186,-0.087l-0.186,-0.089l-0.186,-0.09l-0.185,-0.092l-0.184,-0.092l-0.184,-0.093l-0.183,-0.095l-0.182,-0.095l-0.181,-0.097l-0.181,-0.097l-0.181,-0.099l-0.179,-0.1l-0.179,-0.1l-0.179,-0.102l-0.177,-0.103l-0.177,-0.104l-0.177,-0.105l-0.175,-0.106l-0.175,-0.107l-0.174,-0.108l-0.174,-0.109l-0.173,-0.11l-0.172,-0.111l-0.171,-0.112l-0.171,-0.113l-0.17,-0.114l-0.169,-0.115l-0.168,-0.116l-0.168,-0.117l-0.167,-0.118l-0.166,-0.119l-0.166,-0.12l-0.165,-0.121l-0.164,-0.122l-0.163,-0.123l-0.162,-0.124l-0.162,-0.124l-0.161,-0.126l-0.16,-0.127l-0.16,-0.127l-0.158,-0.129l-0.158,-0.129l-0.157,-0.131l-0.156,-0.131l-0.156,-0.132l-0.154,-0.133l-0.154,-0.134l-0.153,-0.135l-0.152,-0.136l-0.152,-0.137l-0.15,-0.137l-0.15,-0.139l-0.149,-0.139l-0.148,-0.141l-0.147,-0.141l-0.146,-0.142l-0.146,-0.143l-0.144,-0.143l-0.144,-0.145l-0.143,-0.146l-0.142,-0.146l-0.141,-0.147l-0.141,-0.148l-0.139,-0.149l-0.139,-0.15l-0.137,-0.15l-0.137,-0.152l-0.136,-0.152l-0.135,-0.153l-0.134,-0.154l-0.133,-0.154l-0.132,-0.156l-0.131,-0.156l-0.131,-0.157l-0.129,-0.158l-0.129,-0.158l-0.127,-0.16l-0.127,-0.16l-0.126,-0.161l-0.124,-0.162l-0.124,-0.162l-0.123,-0.163l-0.122,-0.164l-0.121,-0.165l-0.12,-0.166l-0.119,-0.166l-0.118,-0.167l-0.117,-0.168l-0.116,-0.168l-0.115,-0.169l-0.114,-0.17l-0.113,-0.171l-0.112,-0.171l-0.111,-0.172l-0.11,-0.173l-0.109,-0.174l-0.108,-0.174l-0.107,-0.175l-0.106,-0.175l-0.105,-0.177l-0.104,-0.177l-0.103,-0.177l-0.102,-0.179l-0.1,-0.179l-0.1,-0.179l-0.099,-0.181l-0.097,-0.181l-0.097,-0.181l-0.095,-0.182l-0.095,-0.183l-0.093,-0.184l-0.092,-0.184l-0.092,-0.185l-0.09,-0.186l-0.089,-0.186l-0.087,-0.186l-0.087,-0.188l-0.086,-0.188l-0.084,-0.188l-0.084,-0.19l-0.082,-0.189l-0.081,-0.191l-0.081,-0.191l-0.078,-0.191l-0.078,-0.192l-0.077,-0.193l-0.075,-0.193l-0.075,-0.194l-0.073,-0.195l-0.072,-0.195l-0.071,-0.195l-0.07,-0.196l-0.068,-0.197l-0.068,-0.197l-0.066,-0.198l-0.065,-0.198l-0.064,-0.199l-0.063,-0.2l-0.061,-0.199l-0.06,-0.201l-0.059,-0.201l-0.058,-0.201l-0.057,-0.202l-0.055,-0.203l-0.055,-0.203l-0.053,-0.203l-0.052,-0.204l-0.05,-0.204l-0.049,-0.205l-0.048,-0.206l-0.047,-0.206l-0.046,-0.206l-0.044,-0.207l-0.043,-0.207l-0.042,-0.208l-0.041,-0.208l-0.039,-0.209l-0.038,-0.209l-0.037,-0.209l-0.035,-0.21l-0.034,-0.211l-0.033,-0.211l-0.032,-0.211l-0.03,-0.212l-0.029,-0.212l-0.028,-0.212l-0.026,-0.213l-0.025,-0.213l-0.024,-0.214l-0.022,-0.214l-0.022,-0.215l-0.019,-0.215l-0.019,-0.215l-0.017,-0.216l-0.016,-0.216l-0.014,-0.216l-0.013,-0.217l-0.012,-0.217l-0.01,-0.218l-0.009,-0.218l-0.008,-0.218l-0.006,-0.218l-0.005,-0.219l-0.003,-0.22l-0.002,-0.219l-0.001,-0.22l0.001,-0.052l0.002,-0.051l0.003,-0.052l0.004,-0.05l0.006,-0.051l0.007,-0.05l0.008,-0.049l0.01,-0.05l0.01,-0.048l0.012,-0.049l0.013,-0.047l0.014,-0.048l0.016,-0.047l0.016,-0.046l0.017,-0.046l0.019,-0.045l0.019,-0.044l0.021,-0.044l0.022,-0.044l0.022,-0.043l0.024,-0.042l0.025,-0.041l0.025,-0.041l0.027,-0.041l0.027,-0.039l0.029,-0.039l0.029,-0.038l0.03,-0.037l0.031,-0.037l0.032,-0.036l0.033,-0.035l0.034,-0.034l0.034,-0.034l0.035,-0.032l0.036,-0.032l0.037,-0.031l0.037,-0.03l0.038,-0.029l0.039,-0.029l0.04,-0.027l0.04,-0.026l0.041,-0.026l0.042,-0.024l0.042,-0.024l0.043,-0.022l0.043,-0.022l0.044,-0.02l0.044,-0.02l0.046,-0.018l0.045,-0.017l0.046,-0.016l0.047,-0.016l0.047,-0.014l0.048,-0.012l0.048,-0.012l0.048,-0.011l0.049,-0.009l0.049,-0.008l0.05,-0.007l0.05,-0.006l0.051,-0.004l0.05,-0.003l0.052,-0.002l0.051,-0.001l7,0l0.052,0.001Zm-7.046,0.999l-0.032,0l-0.026,0.001l-0.026,0.002l-0.025,0.002l-0.025,0.003l-0.025,0.004l-0.024,0.004l-0.025,0.004l-0.024,0.006l-0.024,0.005l-0.023,0.007l-0.024,0.007l-0.023,0.007l-0.023,0.008l-0.023,0.009l-0.022,0.009l-0.022,0.01l-0.022,0.01l-0.022,0.011l-0.021,0.011l-0.021,0.012l-0.021,0.012l-0.021,0.013l-0.02,0.013l-0.02,0.013l-0.019,0.015l-0.019,0.014l-0.019,0.015l-0.019,0.016l-0.018,0.016l-0.017,0.016l-0.018,0.017l-0.016,0.017l-0.017,0.018l-0.016,0.018l-0.016,0.018l-0.015,0.019l-0.014,0.019l-0.015,0.02l-0.013,0.019l-0.014,0.021l-0.012,0.02l-0.013,0.021l-0.011,0.021l-0.012,0.021l-0.011,0.022l-0.01,0.021l-0.009,0.023l-0.01,0.022l-0.008,0.023l-0.008,0.023l-0.008,0.023l-0.007,0.023l-0.006,0.024l-0.006,0.024l-0.005,0.024l-0.005,0.025l-0.004,0.024l-0.004,0.025l-0.003,0.026l-0.002,0.025l-0.002,0.026l-0.001,0.026l0,0.032l0.001,0.209l0.002,0.213l0.003,0.213l0.005,0.212l0.006,0.213l0.007,0.211l0.009,0.212l0.01,0.211l0.011,0.211l0.013,0.211l0.014,0.21l0.015,0.209l0.017,0.21l0.018,0.209l0.019,0.208l0.02,0.209l0.022,0.208l0.023,0.207l0.025,0.207l0.025,0.207l0.027,0.206l0.028,0.206l0.03,0.205l0.03,0.205l0.032,0.205l0.033,0.204l0.035,0.204l0.035,0.203l0.037,0.203l0.038,0.203l0.04,0.202l0.04,0.201l0.042,0.202l0.043,0.2l0.044,0.201l0.046,0.199l0.047,0.2l0.047,0.198l0.049,0.199l0.051,0.198l0.051,0.197l0.053,0.197l0.054,0.197l0.055,0.196l0.056,0.195l0.057,0.195l0.059,0.195l0.059,0.193l0.061,0.194l0.062,0.193l0.063,0.192l0.064,0.192l0.066,0.192l0.066,0.19l0.068,0.191l0.069,0.189l0.07,0.19l0.071,0.188l0.072,0.189l0.073,0.187l0.075,0.187l0.075,0.187l0.077,0.185l0.078,0.186l0.078,0.185l0.08,0.184l0.081,0.183l0.082,0.183l0.083,0.183l0.085,0.182l0.085,0.181l0.086,0.18l0.088,0.18l0.088,0.18l0.09,0.179l0.09,0.178l0.092,0.177l0.092,0.177l0.094,0.176l0.095,0.176l0.096,0.175l0.096,0.175l0.098,0.173l0.099,0.173l0.1,0.173l0.101,0.171l0.102,0.172l0.102,0.17l0.104,0.17l0.105,0.169l0.106,0.168l0.107,0.168l0.107,0.167l0.109,0.166l0.11,0.166l0.111,0.165l0.111,0.164l0.113,0.164l0.114,0.163l0.114,0.162l0.116,0.161l0.116,0.161l0.117,0.16l0.119,0.159l0.119,0.158l0.12,0.158l0.121,0.157l0.122,0.156l0.123,0.156l0.124,0.154l0.125,0.154l0.125,0.154l0.127,0.152l0.127,0.152l0.129,0.151l0.129,0.15l0.13,0.149l0.131,0.149l0.132,0.147l0.133,0.147l0.133,0.146l0.135,0.146l0.135,0.144l0.136,0.144l0.137,0.143l0.138,0.142l0.139,0.141l0.14,0.14l0.14,0.14l0.141,0.139l0.142,0.138l0.143,0.137l0.144,0.136l0.144,0.135l0.146,0.135l0.146,0.133l0.147,0.133l0.147,0.132l0.149,0.131l0.149,0.13l0.15,0.129l0.151,0.129l0.152,0.127l0.152,0.127l0.154,0.125l0.154,0.125l0.154,0.124l0.156,0.123l0.156,0.122l0.157,0.121l0.158,0.12l0.158,0.119l0.159,0.119l0.16,0.117l0.161,0.116l0.161,0.116l0.162,0.114l0.163,0.114l0.164,0.113l0.164,0.111l0.165,0.111l0.166,0.11l0.166,0.109l0.167,0.107l0.168,0.107l0.168,0.106l0.169,0.105l0.17,0.104l0.17,0.102l0.172,0.102l0.171,0.101l0.173,0.1l0.173,0.099l0.173,0.098l0.175,0.096l0.175,0.096l0.176,0.095l0.176,0.094l0.177,0.092l0.177,0.092l0.178,0.09l0.179,0.09l0.18,0.088l0.18,0.088l0.18,0.086l0.181,0.085l0.182,0.085l0.183,0.083l0.183,0.082l0.183,0.081l0.184,0.08l0.185,0.078l0.186,0.078l0.185,0.077l0.187,0.075l0.187,0.075l0.187,0.073l0.189,0.072l0.188,0.071l0.19,0.07l0.189,0.069l0.191,0.068l0.19,0.066l0.192,0.066l0.192,0.064l0.192,0.063l0.193,0.062l0.194,0.061l0.193,0.059l0.195,0.059l0.195,0.057l0.195,0.056l0.196,0.055l0.197,0.054l0.197,0.053l0.197,0.051l0.198,0.051l0.199,0.049l0.198,0.047l0.2,0.047l0.199,0.046l0.201,0.044l0.2,0.043l0.202,0.042l0.201,0.04l0.202,0.04l0.203,0.038l0.203,0.037l0.203,0.035l0.204,0.035l0.204,0.033l0.205,0.032l0.205,0.03l0.205,0.03l0.206,0.028l0.206,0.027l0.207,0.025l0.207,0.025l0.207,0.023l0.208,0.022l0.209,0.02l0.208,0.019l0.209,0.018l0.21,0.017l0.209,0.015l0.21,0.014l0.211,0.013l0.211,0.011l0.211,0.01l0.212,0.009l0.211,0.007l0.213,0.006l0.212,0.005l0.213,0.003l0.213,0.002l0.209,0.001l0.032,0l0.026,-0.001l0.026,-0.002l0.026,-0.002l0.026,-0.003l0.025,-0.004l0.025,-0.004l0.025,-0.004l0.024,-0.006l0.024,-0.006l0.024,-0.006l0.024,-0.007l0.023,-0.007l0.023,-0.009l0.023,-0.008l0.022,-0.009l0.022,-0.01l0.022,-0.01l0.022,-0.011l0.021,-0.011l0.021,-0.012l0.02,-0.012l0.021,-0.012l0.02,-0.013l0.019,-0.014l0.02,-0.014l0.019,-0.015l0.018,-0.015l0.019,-0.015l0.018,-0.016l0.017,-0.016l0.017,-0.017l0.017,-0.017l0.016,-0.017l0.016,-0.018l0.015,-0.019l0.015,-0.018l0.015,-0.019l0.014,-0.02l0.014,-0.019l0.013,-0.02l0.012,-0.021l0.012,-0.02l0.012,-0.021l0.011,-0.021l0.011,-0.022l0.01,-0.022l0.01,-0.022l0.009,-0.022l0.008,-0.023l0.009,-0.023l0.007,-0.023l0.007,-0.024l0.006,-0.024l0.006,-0.024l0.006,-0.024l0.004,-0.025l0.004,-0.025l0.004,-0.025l0.003,-0.026l0.002,-0.026l0.002,-0.026l0.001,-0.026l0,-0.033l0,-6.988l0,-0.033l-0.001,-0.026l-0.002,-0.026l-0.002,-0.026l-0.003,-0.026l-0.004,-0.025l-0.004,-0.025l-0.005,-0.025l-0.005,-0.024l-0.006,-0.024l-0.006,-0.024l-0.007,-0.024l-0.007,-0.023l-0.009,-0.023l-0.008,-0.023l-0.009,-0.022l-0.01,-0.022l-0.01,-0.022l-0.011,-0.022l-0.011,-0.021l-0.012,-0.021l-0.012,-0.02l-0.012,-0.021l-0.013,-0.02l-0.014,-0.019l-0.014,-0.02l-0.015,-0.019l-0.015,-0.018l-0.015,-0.019l-0.016,-0.018l-0.016,-0.017l-0.017,-0.017l-0.017,-0.017l-0.017,-0.016l-0.018,-0.016l-0.019,-0.015l-0.018,-0.015l-0.019,-0.015l-0.02,-0.014l-0.019,-0.013l-0.02,-0.014l-0.021,-0.012l-0.02,-0.012l-0.021,-0.012l-0.021,-0.011l-0.022,-0.011l-0.022,-0.01l-0.022,-0.01l-0.022,-0.009l-0.023,-0.008l-0.023,-0.009l-0.023,-0.007l-0.024,-0.007l-0.024,-0.006l-0.024,-0.006l-0.024,-0.006l-0.025,-0.004l-0.025,-0.004l-0.025,-0.004l-0.026,-0.003l-0.026,-0.002l-0.026,-0.002l-0.026,-0.001l-0.036,0l-0.234,-0.001l-0.243,-0.004l-0.242,-0.006l-0.242,-0.008l-0.241,-0.011l-0.241,-0.014l-0.24,-0.015l-0.239,-0.018l-0.239,-0.021l-0.238,-0.022l-0.238,-0.025l-0.236,-0.028l-0.237,-0.029l-0.235,-0.032l-0.235,-0.035l-0.234,-0.036l-0.233,-0.039l-0.233,-0.041l-0.231,-0.043l-0.231,-0.046l-0.23,-0.048l-0.23,-0.05l-0.228,-0.052l-0.228,-0.054l-0.226,-0.057l-0.226,-0.058l-0.225,-0.061l-0.224,-0.063l-0.223,-0.065l-0.222,-0.068l-0.221,-0.069l-0.204,-0.066l-0.038,-0.012l-0.033,-0.009l-0.034,-0.007l-0.033,-0.007l-0.034,-0.005l-0.034,-0.004l-0.034,-0.003l-0.034,-0.002l-0.034,-0.001l-0.034,0l-0.034,0.002l-0.034,0.002l-0.034,0.004l-0.034,0.005l-0.034,0.006l-0.033,0.007l-0.033,0.008l-0.033,0.009l-0.032,0.011l-0.032,0.011l-0.032,0.013l-0.031,0.014l-0.031,0.015l-0.03,0.015l-0.03,0.018l-0.029,0.018l-0.029,0.019l-0.029,0.021l-0.028,0.021l-0.027,0.023l-0.027,0.025l-0.033,0.031l-4.909,4.92l-0.919,-0.472l-0.272,-0.144l-0.271,-0.146l-0.269,-0.149l-0.267,-0.151l-0.266,-0.154l-0.264,-0.156l-0.262,-0.159l-0.261,-0.161l-0.258,-0.164l-0.258,-0.167l-0.255,-0.168l-0.253,-0.172l-0.252,-0.173l-0.25,-0.177l-0.248,-0.178l-0.246,-0.181l-0.245,-0.183l-0.242,-0.186l-0.241,-0.188l-0.238,-0.19l-0.237,-0.192l-0.235,-0.195l-0.233,-0.197l-0.23,-0.199l-0.229,-0.202l-0.227,-0.204l-0.225,-0.205l-0.223,-0.208l-0.22,-0.211l-0.219,-0.212l-0.217,-0.214l-0.214,-0.217l-0.212,-0.219l-0.211,-0.22l-0.208,-0.223l-0.205,-0.225l-0.204,-0.227l-0.202,-0.228l-0.199,-0.231l-0.197,-0.233l-0.195,-0.235l-0.192,-0.236l-0.19,-0.239l-0.188,-0.24l-0.186,-0.243l-0.183,-0.244l-0.181,-0.246l-0.179,-0.248l-0.176,-0.249l-0.174,-0.252l-0.171,-0.253l-0.169,-0.255l-0.167,-0.257l-0.164,-0.259l-0.162,-0.26l-0.159,-0.262l-0.156,-0.263l-0.154,-0.266l-0.152,-0.266l-0.149,-0.269l-0.146,-0.27l-0.144,-0.272l-0.474,-0.917l4.909,-4.931l0.032,-0.034l0.025,-0.027l0.023,-0.027l0.021,-0.028l0.021,-0.029l0.019,-0.029l0.018,-0.029l0.018,-0.03l0.015,-0.03l0.015,-0.031l0.014,-0.031l0.013,-0.032l0.011,-0.032l0.011,-0.032l0.009,-0.033l0.008,-0.033l0.007,-0.033l0.006,-0.034l0.005,-0.034l0.004,-0.034l0.002,-0.034l0.002,-0.034l0,-0.034l-0.001,-0.034l-0.002,-0.034l-0.003,-0.034l-0.004,-0.034l-0.005,-0.034l-0.007,-0.033l-0.007,-0.034l-0.009,-0.033l-0.012,-0.038l-0.066,-0.204l-0.069,-0.221l-0.068,-0.222l-0.065,-0.223l-0.063,-0.224l-0.061,-0.225l-0.058,-0.226l-0.057,-0.226l-0.054,-0.228l-0.052,-0.228l-0.05,-0.23l-0.048,-0.23l-0.046,-0.231l-0.043,-0.231l-0.041,-0.233l-0.039,-0.233l-0.036,-0.234l-0.035,-0.235l-0.032,-0.235l-0.029,-0.237l-0.028,-0.236l-0.025,-0.238l-0.022,-0.238l-0.021,-0.239l-0.018,-0.239l-0.015,-0.24l-0.014,-0.241l-0.011,-0.241l-0.008,-0.242l-0.006,-0.242l-0.004,-0.243l-0.001,-0.234l0,-0.036l-0.001,-0.026l-0.002,-0.026l-0.002,-0.026l-0.003,-0.026l-0.004,-0.025l-0.004,-0.025l-0.005,-0.025l-0.005,-0.024l-0.006,-0.024l-0.006,-0.024l-0.007,-0.024l-0.007,-0.023l-0.009,-0.023l-0.008,-0.023l-0.009,-0.022l-0.01,-0.022l-0.01,-0.022l-0.011,-0.022l-0.011,-0.021l-0.012,-0.021l-0.012,-0.02l-0.012,-0.021l-0.014,-0.02l-0.013,-0.019l-0.014,-0.02l-0.015,-0.019l-0.015,-0.018l-0.015,-0.019l-0.016,-0.018l-0.016,-0.017l-0.017,-0.017l-0.017,-0.017l-0.017,-0.016l-0.018,-0.016l-0.019,-0.015l-0.018,-0.015l-0.019,-0.015l-0.02,-0.014l-0.019,-0.013l-0.02,-0.014l-0.021,-0.012l-0.02,-0.012l-0.021,-0.012l-0.021,-0.011l-0.022,-0.011l-0.022,-0.01l-0.022,-0.01l-0.022,-0.009l-0.023,-0.008l-0.023,-0.009l-0.023,-0.007l-0.024,-0.007l-0.024,-0.006l-0.024,-0.006l-0.024,-0.005l-0.025,-0.005l-0.025,-0.004l-0.025,-0.004l-0.026,-0.003l-0.026,-0.002l-0.026,-0.002l-0.026,-0.001l-0.033,0l-6.988,0Zm33.994,13l-12,0l-6,6l0,-20l18,0l0,14Zm-17,-13l0,16.586l4.586,-4.586l11.414,0l0,-12l-16,0Z"/></svg>