<?xml version="1.0" encoding="UTF-8" standalone="no"?><!DOCTYPE svg PUBLIC "-//W3C//DTD SVG 1.1//EN" "http://www.w3.org/Graphics/SVG/1.1/DTD/svg11.dtd"><svg width="100%" height="100%" viewBox="0 0 30 30" version="1.1" xmlns="http://www.w3.org/2000/svg" xmlns:xlink="http://www.w3.org/1999/xlink" xml:space="preserve" xmlns:serif="http://www.serif.com/" style="fill-rule:evenodd;clip-rule:evenodd;stroke-linejoin:round;stroke-miterlimit:2;"><path d="M9,24c-1.658,0 -2.985,1.343 -2.985,3c0,1.657 1.327,3 2.985,3c1.658,0 3,-1.343 3,-3c0,-1.657 -1.342,-3 -3,-3Zm-9,-24l0,3l3,0l5.393,11.378l-2.025,3.675c-0.233,0.434 -0.368,0.922 -0.368,1.447c0,1.657 1.343,3 3,3l18,0l0,-3l-17.363,0c-0.21,0 -0.375,-0.165 -0.375,-0.375c0,-0.067 0.015,-0.128 0.046,-0.18l1.342,-2.445l11.175,0c1.125,0 2.108,-0.622 2.625,-1.545l5.362,-9.735c0.12,-0.21 0.188,-0.457 0.188,-0.72c0,-0.833 -0.675,-1.5 -1.5,-1.5l-22.178,0l-1.425,-3l-4.897,0Zm24,24c-1.658,0 -2.985,1.343 -2.985,3c0,1.657 1.327,3 2.985,3c1.657,0 3,-1.343 3,-3c0,-1.657 -1.343,-3 -3,-3Z" style="fill:#fff;fill-rule:nonzero;"/></svg>